<?xml version="1.0" encoding="utf-8"?>
<!-- Generator: Adobe Illustrator 25.4.1, SVG Export Plug-In . SVG Version: 6.00 Build 0)  -->
<svg version="1.1" id="Layer_1" xmlns="http://www.w3.org/2000/svg" xmlns:xlink="http://www.w3.org/1999/xlink" x="0px" y="0px"
	 viewBox="0 0 612 792" style="enable-background:new 0 0 612 792;" xml:space="preserve">
<style type="text/css">
	.st0{display:none;fill:#C3996B;}
	.st1{fill:none;stroke:#231F20;stroke-width:16;stroke-miterlimit:10;}
	.st2{fill:#DBD053;stroke:#231F20;stroke-width:0.5;stroke-miterlimit:10;}
	.st3{fill:none;stroke:#231F20;stroke-width:0.25;stroke-miterlimit:10;}
	.st4{fill:#FFFFFF;}
</style>
<rect class="st0" width="604.2" height="608.9"/>
<path class="st1" d="M203.9,207.8c4.8-8.7,12.7-19.7,23.7-21c33.9-3.8,53.9,89.8,91.1,89.6c37.4-0.2,59.6-94.9,88.8-89.7
	c7.4,1.3,12.3,8.6,15.1,13.7c35.5,83.9,29.2,169.2-17.6,215.4c-6.5,6.4-43.3,42.7-92.1,37.3c-37.1-4.1-60.9-29.9-71.6-41.8
	C176.8,339.1,199.2,229.1,203.9,207.8z"/>
<circle class="st2" cx="367.4" cy="498" r="71.9"/>
<circle class="st3" cx="367.4" cy="498" r="63.5"/>
<path class="st4" d="M290.2,500.4c-1-1.2,4.4-5.3,6.8-11.4c5.3-13.3-6.4-29.4-5-30.1c1.4-0.7,8.1,18,21,20.1c7,1.1,13-3.2,14.1-1.4
	c1.3,2.1-7.8,6.7-10,16.4c-1.7,7.7,1.9,13.9,0.2,14.7c-2.2,1-6.6-10.6-15.2-11.5C296,496.5,291.2,501.6,290.2,500.4z"/>
</svg>
