<svg id="Layer_1" data-name="Layer 1" xmlns="http://www.w3.org/2000/svg" viewBox="0 0 324.92 253.05"><defs><style>.cls-1,.cls-2,.cls-3,.cls-4,.cls-5,.cls-9{fill:#2a1e5c;}.cls-1,.cls-3,.cls-7,.cls-9{stroke:#231f20;}.cls-1,.cls-2,.cls-3,.cls-4,.cls-5,.cls-6,.cls-7,.cls-8,.cls-9{stroke-miterlimit:10;}.cls-2,.cls-4,.cls-5,.cls-6{stroke:#dbd053;}.cls-2,.cls-8,.cls-9{stroke-width:0.5px;}.cls-3{stroke-width:0.75px;}.cls-5{stroke-width:0.25px;}.cls-6,.cls-7{fill:#dbd053;}.cls-8{fill:#fff;stroke:#fff100;}</style></defs><path class="cls-1" d="M327.24,295.15l-21.64-.38L303.77,290l24.91.07Z" transform="translate(-145.46 -279.95)"/><rect class="cls-2" x="363.37" y="357.99" width="11.22" height="11.22" transform="translate(592.51 447.25) rotate(180)"/><rect class="cls-2" x="352.15" y="357.99" width="11.22" height="11.22" transform="translate(570.07 447.25) rotate(180)"/><rect class="cls-2" x="352.15" y="346.77" width="11.22" height="11.22" transform="translate(570.07 424.81) rotate(180)"/><rect class="cls-3" x="349.76" y="369.21" width="24.84" height="163.28" transform="translate(578.9 621.75) rotate(180)"/><rect class="cls-2" x="111.83" y="78.04" width="11.22" height="11.22"/><rect class="cls-2" x="123.05" y="78.04" width="11.22" height="11.22"/><rect class="cls-2" x="123.05" y="66.82" width="11.22" height="11.22"/><rect class="cls-3" x="111.83" y="89.26" width="24.84" height="163.28"/><path class="cls-4" d="M349.23,315.18v-.85h-6.88l-15.19-19.94L305,294.15l-15.07,20.18-6.66-.35-.2.35h-.14v.24l-4.44,7.85V532.49h74.28V322.42Z" transform="translate(-145.46 -279.95)"/><rect class="cls-5" x="133.42" y="56.19" width="73.27" height="5.88"/><rect class="cls-2" x="151.54" y="48.39" width="12.08" height="10.82"/><rect class="cls-2" x="164.11" y="48.39" width="12.08" height="10.82"/><rect class="cls-2" x="176.71" y="48.39" width="12.08" height="10.82"/><rect class="cls-2" x="151.54" y="59.21" width="12.08" height="10.82"/><rect class="cls-2" x="164.11" y="59.21" width="12.08" height="10.82"/><rect class="cls-2" x="176.71" y="59.21" width="12.08" height="10.82"/><rect class="cls-2" x="151.54" y="70.03" width="12.08" height="182.51"/><rect class="cls-2" x="164.11" y="70.03" width="12.08" height="182.51"/><rect class="cls-2" x="176.71" y="70.03" width="12.08" height="182.51"/><path class="cls-2" d="M145.71,530.55h58l-50.82-250.1-7.22,6Z" transform="translate(-145.46 -279.95)"/><path class="cls-2" d="M219.18,530.55h-58q25.2-125.08,50.38-250.16l7.66,5.45Z" transform="translate(-145.46 -279.95)"/><rect class="cls-4" x="7.47" y="0.5" width="58.04" height="250.1"/><path class="cls-4" d="M242.31,531.94H263V343.34h-4.1v-6.83h-3.65v-5.7h-5v-6.15h-5.92V320.1H221.84v5H218v4.55h-3.42V334h-4.24v6.38H205.7V531.94h36.61Z" transform="translate(-145.46 -279.95)"/><path class="cls-4" d="M221.05,531.94H241.7V343.34h-4.1v-6.83H234v-5.7h-5v-6.15H223V320.1H200.58v5H196.7v4.55h-3.41V334h-4.24v6.38h-4.62V531.94h36.62Z" transform="translate(-145.46 -279.95)"/><path class="cls-2" d="M229,324.66h15.34" transform="translate(-145.46 -279.95)"/><path class="cls-2" d="M234.34,330.81h15.34" transform="translate(-145.46 -279.95)"/><path class="cls-2" d="M237.92,336.69H255" transform="translate(-145.46 -279.95)"/><path class="cls-2" d="M242,343.34h17.05" transform="translate(-145.46 -279.95)"/><rect class="cls-6" x="44.7" y="66.53" width="12.08" height="12.08"/><rect class="cls-6" x="61.34" y="66.53" width="12.08" height="12.08"/><rect class="cls-6" x="78.44" y="66.53" width="12.08" height="12.08"/><rect class="cls-6" x="44.23" y="83.79" width="12.08" height="12.08"/><rect class="cls-6" x="60.86" y="83.79" width="12.08" height="12.08"/><rect class="cls-6" x="77.97" y="83.79" width="12.08" height="12.08"/><rect class="cls-6" x="44" y="125.25" width="12.08" height="12.08"/><rect class="cls-6" x="60.63" y="125.25" width="12.08" height="12.08"/><rect class="cls-6" x="77.73" y="125.25" width="12.08" height="12.08"/><rect class="cls-6" x="43.76" y="141.43" width="12.08" height="12.08"/><rect class="cls-6" x="60.39" y="141.43" width="12.08" height="12.08"/><rect class="cls-6" x="77.5" y="141.43" width="12.08" height="12.08"/><rect class="cls-6" x="44.47" y="197.94" width="12.08" height="12.08"/><rect class="cls-6" x="61.1" y="197.94" width="12.08" height="12.08"/><rect class="cls-6" x="78.21" y="197.94" width="12.08" height="12.08"/><rect class="cls-6" x="44.23" y="213.2" width="12.08" height="12.08"/><rect class="cls-6" x="60.86" y="213.2" width="12.08" height="12.08"/><rect class="cls-6" x="77.97" y="213.2" width="12.08" height="12.08"/><rect class="cls-7" x="23.88" y="0.5" width="28.94" height="9.49"/><line class="cls-8" x1="144.46" y1="34.38" x2="196.9" y2="34.38"/><path class="cls-4" d="M374.63,338.93,465.47,333a12.71,12.71,0,0,1,1.21,8.21q1.6,95.24,3.19,190.48l-95.27.8Z" transform="translate(-145.46 -279.95)"/><path class="cls-5" d="M374.63,502A100.77,100.77,0,0,0,464,499.3" transform="translate(-145.46 -279.95)"/><path class="cls-5" d="M374.63,466.92A100.86,100.86,0,0,0,464,464.19" transform="translate(-145.46 -279.95)"/><path class="cls-5" d="M374.63,461A100.77,100.77,0,0,0,464,458.26" transform="translate(-145.46 -279.95)"/><path class="cls-5" d="M377.57,496.5a100.88,100.88,0,0,0,89.33-2.73" transform="translate(-145.46 -279.95)"/><path class="cls-5" d="M374.63,399.47A100.82,100.82,0,0,0,464,396.73" transform="translate(-145.46 -279.95)"/><path class="cls-5" d="M374.63,354.87A100.77,100.77,0,0,0,464,352.14" transform="translate(-145.46 -279.95)"/><path class="cls-9" d="M147.09,295" transform="translate(-145.46 -279.95)"/></svg>